<svg width="240" height="240" viewBox="0 0 240 240" fill="none" xmlns="http://www.w3.org/2000/svg">
  <rect width="240" height="240" rx="56" fill="url(#bg)"/>
  <circle cx="171" cy="72" r="26" fill="#FFE08A"/>
  <path d="M56 156C56 111.817 91.8172 76 136 76H184V152C184 186.242 156.242 214 122 214H56V156Z" fill="#F4F7E8"/>
  <path d="M49 160C49 128.52 74.5198 103 106 103H135V214H49V160Z" fill="#1C5A3B"/>
  <path d="M94 136C113.33 136 129 151.67 129 171V214H59V171C59 151.67 74.6701 136 94 136Z" fill="#2F8F5B"/>
  <path d="M92 128C107.464 128 120 115.464 120 100C120 84.536 107.464 72 92 72C76.536 72 64 84.536 64 100C64 115.464 76.536 128 92 128Z" fill="#8FD5A6"/>
  <path d="M122 65C127.515 56.2253 136.94 50.5 147.703 50.5C164.925 50.5 178.888 64.4631 178.888 81.6852C178.888 98.9073 164.925 112.87 147.703 112.87C138.915 112.87 130.976 109.233 125.309 103.391" stroke="#2F8F5B" stroke-width="12" stroke-linecap="round"/>
  <path d="M162 160C154.425 144.796 138.758 134.5 120.686 134.5C102.614 134.5 86.9465 144.796 79.3719 160H162Z" fill="#C9E97C"/>
  <path d="M152 173C146.336 161.745 134.684 154 121.224 154C107.764 154 96.1118 161.745 90.4481 173H152Z" fill="#8FD5A6"/>
  <defs>
    <linearGradient id="bg" x1="18" y1="18" x2="224" y2="223" gradientUnits="userSpaceOnUse">
      <stop stop-color="#123C2D"/>
      <stop offset="1" stop-color="#2E7050"/>
    </linearGradient>
  </defs>
</svg>
